<svg width="100" height="136" viewBox="0 0 100 136" fill="none" xmlns="http://www.w3.org/2000/svg">
<circle cx="50" cy="71" r="50" fill="#FCCC53"/>
<path d="M68.5 66.3C70.1667 66.3 71.5667 66.8667 72.7 68C73.8333 69.1333 74.4 70.5333 74.4 72.2C74.4 73.8667 73.8333 75.3 72.7 76.5C71.5667 77.6333 70.1667 78.2 68.5 78.2H55.9V90.7C55.9 92.3667 55.3333 93.7667 54.2 94.9C53.1333 96.0333 51.7333 96.6 50 96.6C48.3333 96.6 46.9333 96.0333 45.8 94.9C44.6667 93.7667 44.1 92.3667 44.1 90.7V78.2H31.5C29.8333 78.2 28.4333 77.6333 27.3 76.5C26.1667 75.3 25.6 73.8667 25.6 72.2C25.6 70.5333 26.1667 69.1333 27.3 68C28.4333 66.8667 29.8333 66.3 31.5 66.3H44.1V53.7C44.1 52.0333 44.6667 50.6333 45.8 49.5C46.9333 48.3667 48.3333 47.8 50 47.8C51.6667 47.8 53.0667 48.3667 54.2 49.5C55.3333 50.6333 55.9 52.0333 55.9 53.7V66.3H68.5Z" fill="white"/>
</svg>
